REM DIRINDEX 1\2\5,1\2\6,1\2\7,1\2\8,1\3\9,1\3\10,1\3\11,1\4\12,1\4\13,1\4\14,1\4\15,1\4\16
REM DIRNAME cjc034,folder01,folder02,folder03,folder04,folder05,folder06,folder07,folder08,folder09,folder10,folder11,folder12,folder13,folder14,folder15
TITLE ""
FILE "1200_sec02_0582_0592.mp3" MP3
  TRACK 01 AUDIO
    TITLE "0:"
    INDEX 01 00:00:00
  TRACK 02 AUDIO
    TITLE "12:cjc034_05977"
    INDEX 01 00:00:17
  TRACK 03 AUDIO
    TITLE "0:"
    INDEX 01 00:01:54
  TRACK 04 AUDIO
    TITLE "13:cjc034_05978"
    INDEX 01 00:02:10
  TRACK 05 AUDIO
    TITLE "0:"
    INDEX 01 00:04:33
  TRACK 06 AUDIO
    TITLE "14:cjc034_05979"
    INDEX 01 00:04:66
  TRACK 07 AUDIO
    TITLE "0:"
    INDEX 01 00:06:26
  TRACK 08 AUDIO
    TITLE "15:cjc034_05980"
    INDEX 01 00:06:59
  TRACK 09 AUDIO
    TITLE "0:"
    INDEX 01 00:11:54
  TRACK 10 AUDIO
    TITLE "12:cjc034_05981"
    INDEX 01 00:13:10
  TRACK 11 AUDIO
    TITLE "0:"
    INDEX 01 00:16:57
  TRACK 12 AUDIO
    TITLE "13:cjc034_05982"
    INDEX 01 00:17:14
  TRACK 13 AUDIO
    TITLE "0:"
    INDEX 01 00:20:12
  TRACK 14 AUDIO
    TITLE "14:cjc034_05983"
    INDEX 01 00:20:45
  TRACK 15 AUDIO
    TITLE "0:"
    INDEX 01 00:24:18
  TRACK 16 AUDIO
    TITLE "15:cjc034_05984"
    INDEX 01 00:24:49
  TRACK 17 AUDIO
    TITLE "0:"
    INDEX 01 00:28:15
  TRACK 18 AUDIO
    TITLE "12:cjc034_05985"
    INDEX 01 00:29:46
  TRACK 19 AUDIO
    TITLE "0:"
    INDEX 01 00:31:02
  TRACK 20 AUDIO
    TITLE "13:cjc034_05986"
    INDEX 01 00:31:35
  TRACK 21 AUDIO
    TITLE "0:"
    INDEX 01 00:34:42
  TRACK 22 AUDIO
    TITLE "14:cjc034_05987"
    INDEX 01 00:35:00
  TRACK 23 AUDIO
    TITLE "0:"
    INDEX 01 00:36:29
  TRACK 24 AUDIO
    TITLE "15:cjc034_05988"
    INDEX 01 00:36:64
  TRACK 25 AUDIO
    TITLE "0:"
    INDEX 01 00:40:56
  TRACK 26 AUDIO
    TITLE "12:cjc034_05989"
    INDEX 01 00:42:16
  TRACK 27 AUDIO
    TITLE "0:"
    INDEX 01 00:43:62
  TRACK 28 AUDIO
    TITLE "13:cjc034_05990"
    INDEX 01 00:44:18
  TRACK 29 AUDIO
    TITLE "0:"
    INDEX 01 00:45:26
  TRACK 30 AUDIO
    TITLE "14:cjc034_05991"
    INDEX 01 00:45:57
  TRACK 31 AUDIO
    TITLE "0:"
    INDEX 01 00:47:27
  TRACK 32 AUDIO
    TITLE "15:cjc034_05992"
    INDEX 01 00:47:62
  TRACK 33 AUDIO
    TITLE "0:"
    INDEX 01 00:52:26
  TRACK 34 AUDIO
    TITLE "12:cjc034_05993"
    INDEX 01 00:53:58
  TRACK 35 AUDIO
    TITLE "0:"
    INDEX 01 00:55:30
  TRACK 36 AUDIO
    TITLE "13:cjc034_05994"
    INDEX 01 00:55:63
  TRACK 37 AUDIO
    TITLE "0:"
    INDEX 01 00:58:71
  TRACK 38 AUDIO
    TITLE "14:cjc034_05995"
    INDEX 01 00:59:26
  TRACK 39 AUDIO
    TITLE "0:"
    INDEX 01 01:01:01
  TRACK 40 AUDIO
    TITLE "15:cjc034_05996"
    INDEX 01 01:01:31
  TRACK 41 AUDIO
    TITLE "0:"
    INDEX 01 01:04:39
  TRACK 42 AUDIO
    TITLE "12:cjc034_05997"
    INDEX 01 01:05:69
  TRACK 43 AUDIO
    TITLE "0:"
    INDEX 01 01:07:35
  TRACK 44 AUDIO
    TITLE "13:cjc034_05998"
    INDEX 01 01:07:66
  TRACK 45 AUDIO
    TITLE "0:"
    INDEX 01 01:09:03
  TRACK 46 AUDIO
    TITLE "14:cjc034_05999"
    INDEX 01 01:09:34
  TRACK 47 AUDIO
    TITLE "0:"
    INDEX 01 01:11:00
  TRACK 48 AUDIO
    TITLE "15:cjc034_06000"
    INDEX 01 01:11:31
  TRACK 49 AUDIO
    TITLE "0:"
    INDEX 01 01:15:11
  TRACK 50 AUDIO
    TITLE "12:cjc034_06001"
    INDEX 01 01:16:42
  TRACK 51 AUDIO
    TITLE "0:"
    INDEX 01 01:17:69
  TRACK 52 AUDIO
    TITLE "13:cjc034_06002"
    INDEX 01 01:18:29
  TRACK 53 AUDIO
    TITLE "0:"
    INDEX 01 01:21:27
  TRACK 54 AUDIO
    TITLE "14:cjc034_06003"
    INDEX 01 01:21:61
  TRACK 55 AUDIO
    TITLE "0:"
    INDEX 01 01:23:11
  TRACK 56 AUDIO
    TITLE "15:cjc034_06004"
    INDEX 01 01:23:46
  TRACK 57 AUDIO
    TITLE "0:"
    INDEX 01 01:28:14
  TRACK 58 AUDIO
    TITLE "12:cjc034_06005"
    INDEX 01 01:29:45
  TRACK 59 AUDIO
    TITLE "0:"
    INDEX 01 01:32:57
  TRACK 60 AUDIO
    TITLE "13:cjc034_06006"
    INDEX 01 01:33:13
  TRACK 61 AUDIO
    TITLE "0:"
    INDEX 01 01:34:24
  TRACK 62 AUDIO
    TITLE "14:cjc034_06007"
    INDEX 01 01:34:54
  TRACK 63 AUDIO
    TITLE "0:"
    INDEX 01 01:37:68
  TRACK 64 AUDIO
    TITLE "15:cjc034_06008"
    INDEX 01 01:38:22
  TRACK 65 AUDIO
    TITLE "0:"
    INDEX 01 01:42:20
  TRACK 66 AUDIO
    TITLE "12:cjc034_06009"
    INDEX 01 01:43:52
  TRACK 67 AUDIO
    TITLE "0:"
    INDEX 01 01:45:20
  TRACK 68 AUDIO
    TITLE "13:cjc034_06010"
    INDEX 01 01:45:55
  TRACK 69 AUDIO
    TITLE "0:"
    INDEX 01 01:47:33
  TRACK 70 AUDIO
    TITLE "14:cjc034_06011"
    INDEX 01 01:47:66
  TRACK 71 AUDIO
    TITLE "0:"
    INDEX 01 01:49:33
  TRACK 72 AUDIO
    TITLE "15:cjc034_06012"
    INDEX 01 01:49:67
  TRACK 73 AUDIO
    TITLE "0:"
    INDEX 01 01:53:43
  TRACK 74 AUDIO
    TITLE "12:cjc034_06013"
    INDEX 01 01:55:01
  TRACK 75 AUDIO
    TITLE "0:"
    INDEX 01 01:56:26
  TRACK 76 AUDIO
    TITLE "13:cjc034_06014"
    INDEX 01 01:56:61
  TRACK 77 AUDIO
    TITLE "0:"
    INDEX 01 02:01:68
  TRACK 78 AUDIO
    TITLE "14:cjc034_06015"
    INDEX 01 02:02:24
  TRACK 79 AUDIO
    TITLE "0:"
    INDEX 01 02:03:53
  TRACK 80 AUDIO
    TITLE "15:cjc034_06016"
    INDEX 01 02:04:10
  TRACK 81 AUDIO
    TITLE "0:"
    INDEX 01 02:08:41
  TRACK 82 AUDIO
    TITLE "12:cjc034_06017"
    INDEX 01 02:10:00
  TRACK 83 AUDIO
    TITLE "0:"
    INDEX 01 02:11:53
  TRACK 84 AUDIO
    TITLE "13:cjc034_06018"
    INDEX 01 02:12:09
  TRACK 85 AUDIO
    TITLE "0:"
    INDEX 01 02:13:50
  TRACK 86 AUDIO
    TITLE "14:cjc034_06019"
    INDEX 01 02:14:12
  TRACK 87 AUDIO
    TITLE "0:"
    INDEX 01 02:15:62
  TRACK 88 AUDIO
    TITLE "15:cjc034_06020"
    INDEX 01 02:16:21
  TRACK 89 AUDIO
    TITLE "0:"
    INDEX 01 02:20:60
